<svg width="64" height="64" viewBox="0 0 64 64" fill="none" xmlns="http://www.w3.org/2000/svg">
<rect y="0.000488281" width="64" height="64" rx="32" fill="#FFB445"/>
<path d="M27.0712 20.3754C26.9718 20.1291 26.9742 19.8534 27.0781 19.6089C27.1819 19.3644 27.3786 19.1711 27.625 19.0717C27.8713 18.9722 28.147 18.9747 28.3915 19.0785C28.636 19.1824 28.8293 19.3791 28.9287 19.6254L29.9287 22.1254C29.978 22.2474 30.0027 22.3779 30.0015 22.5094C30.0003 22.6409 29.9733 22.7709 29.9219 22.892C29.8704 23.0131 29.7957 23.1228 29.7018 23.215C29.608 23.3071 29.4969 23.3799 29.375 23.4292C29.253 23.4784 29.1225 23.5032 28.991 23.502C28.8595 23.5008 28.7295 23.4737 28.6084 23.4223C28.4873 23.3709 28.3776 23.2961 28.2854 23.2023C28.1932 23.1085 28.1205 22.9974 28.0712 22.8754L27.0712 20.3754ZM19.625 28.9292L22.125 29.9292C22.2469 29.9784 22.3774 30.0032 22.5089 30.002C22.6405 30.0008 22.7705 29.9737 22.8915 29.9223C23.0126 29.8709 23.1223 29.7961 23.2145 29.7023C23.3067 29.6085 23.3795 29.4974 23.4287 29.3754C23.478 29.2535 23.5027 29.123 23.5015 28.9915C23.5003 28.8599 23.4733 28.7299 23.4219 28.6089C23.3704 28.4878 23.2957 28.378 23.2018 28.2859C23.108 28.1937 22.9969 28.1209 22.875 28.0717L20.375 27.0717C20.1286 26.9722 19.8529 26.9747 19.6084 27.0785C19.3639 27.1824 19.1707 27.3791 19.0712 27.6254C18.9718 27.8717 18.9742 28.1475 19.0781 28.392C19.1819 28.6365 19.3786 28.8297 19.625 28.9292ZM44.375 35.0717L41.875 34.0717C41.6286 33.9722 41.3529 33.9747 41.1084 34.0785C40.8639 34.1824 40.6707 34.3791 40.5712 34.6254C40.4718 34.8717 40.4742 35.1475 40.5781 35.392C40.6819 35.6365 40.8786 35.8297 41.125 35.9292L43.625 36.9292C43.8713 37.0286 44.147 37.0262 44.3915 36.9223C44.636 36.8185 44.8293 36.6217 44.9287 36.3754C45.0282 36.1291 45.0257 35.8534 44.9219 35.6089C44.818 35.3644 44.6213 35.1711 44.375 35.0717ZM35.9287 41.1254C35.8293 40.8791 35.636 40.6824 35.3915 40.5785C35.147 40.4747 34.8713 40.4722 34.625 40.5717C34.3786 40.6711 34.1819 40.8644 34.0781 41.1089C33.9742 41.3534 33.9718 41.6291 34.0712 41.8754L35.0712 44.3754C35.1707 44.6217 35.3639 44.8185 35.6084 44.9223C35.8529 45.0262 36.1286 45.0286 36.375 44.9292C36.6213 44.8297 36.818 44.6365 36.9219 44.392C37.0257 44.1475 37.0282 43.8717 36.9287 43.6254L35.9287 41.1254ZM45.7387 18.3154C45.647 18.2176 45.5365 18.1391 45.4138 18.0848C45.2912 18.0306 45.1589 18.0015 45.0247 17.9994C44.8906 17.9973 44.7574 18.0222 44.6331 18.0726C44.5088 18.1231 44.396 18.198 44.3012 18.2929L37.75 24.8442L37.0775 24.1717C36.706 23.7998 36.2648 23.5047 35.7792 23.3034C35.2936 23.1021 34.7731 22.9985 34.2475 22.9985C33.7218 22.9985 33.2013 23.1021 32.7157 23.3034C32.2301 23.5047 31.789 23.7998 31.4175 24.1717L29.2675 26.3179C29.221 26.3644 29.1841 26.4195 29.1589 26.4802C29.1338 26.5409 29.1208 26.606 29.1208 26.6717C29.1208 26.7374 29.1338 26.8024 29.1589 26.8631C29.1841 26.9238 29.221 26.979 29.2675 27.0254L36.98 34.7329C37.0264 34.7794 37.0815 34.8163 37.1422 34.8415C37.2029 34.8666 37.268 34.8796 37.3337 34.8796C37.3994 34.8796 37.4645 34.8666 37.5252 34.8415C37.5859 34.8163 37.641 34.7794 37.6875 34.7329L39.78 32.6404C40.5383 31.8967 40.978 30.8873 41.0062 29.8254C41.0166 29.2886 40.9181 28.7552 40.7168 28.2575C40.5156 27.7597 40.2156 27.3079 39.835 26.9292L39.1625 26.2579L45.6875 19.7367C45.8776 19.5521 45.9892 19.3012 45.9987 19.0363C46.0083 18.7715 45.9151 18.5132 45.7387 18.3154ZM26.705 27.2929C26.6102 27.1982 26.4974 27.1234 26.3733 27.0731C26.2491 27.0228 26.116 26.9979 25.9821 27C25.8481 27.0021 25.7159 27.0311 25.5934 27.0853C25.4708 27.1395 25.3604 27.2177 25.2687 27.3154C25.0923 27.5132 24.9992 27.7715 25.0087 28.0363C25.0183 28.3012 25.1298 28.5521 25.32 28.7367L26.0837 29.5004L24.1675 31.4142C23.7877 31.7931 23.4885 32.2448 23.2878 32.7424C23.0872 33.2399 22.9893 33.7728 23 34.3092C23.0264 35.3708 23.4643 36.3806 24.2212 37.1254L24.8462 37.7429L18.3112 44.2667C18.1268 44.4463 18.0166 44.6886 18.0025 44.9456C17.9884 45.2026 18.0714 45.4555 18.235 45.6542C18.3248 45.7584 18.4352 45.843 18.5592 45.9026C18.6832 45.9622 18.8182 45.9956 18.9557 46.0006C19.0932 46.0056 19.2303 45.9823 19.3584 45.9319C19.4864 45.8815 19.6027 45.8053 19.7 45.7079L26.25 39.1567L26.9212 39.8292C27.6732 40.5776 28.6909 40.9978 29.7518 40.9978C30.8128 40.9978 31.8305 40.5776 32.5825 39.8292L34.5 37.9142L35.2925 38.7079C35.3854 38.8008 35.4957 38.8745 35.6171 38.9248C35.7385 38.9751 35.8686 39.001 36 39.001C36.1314 39.001 36.2615 38.9751 36.3829 38.9248C36.5043 38.8745 36.6146 38.8008 36.7075 38.7079C36.8004 38.615 36.8741 38.5047 36.9244 38.3833C36.9746 38.2619 37.0005 38.1318 37.0005 38.0004C37.0005 37.869 36.9746 37.7389 36.9244 37.6175C36.8741 37.4961 36.8004 37.3858 36.7075 37.2929L26.705 27.2929Z" fill="white"/>
</svg>
