<svg width="64" height="64" viewBox="0 0 64 64" fill="none" xmlns="http://www.w3.org/2000/svg">
<rect y="0.000488281" width="64" height="64" rx="32" fill="#FFB445"/>
<path d="M43.7336 26.3955C45.1212 29.2978 45.3847 32.6111 44.473 35.6962C43.5614 38.7813 41.5393 41.4193 38.797 43.1011C36.0547 44.783 32.7867 45.3894 29.6235 44.8034C26.4604 44.2174 23.6265 42.4804 21.6687 39.9278C19.7109 37.3752 18.7681 34.1879 19.0221 30.981C19.2761 27.7741 20.7091 24.775 23.0443 22.5625C25.3796 20.35 28.4516 19.0809 31.6675 19.0002C34.8835 18.9195 38.0153 20.0329 40.4586 22.1255L43.2923 19.2905C43.48 19.1029 43.7345 18.9974 43.9998 18.9974C44.2652 18.9974 44.5197 19.1029 44.7073 19.2905C44.895 19.4781 45.0004 19.7326 45.0004 19.998C45.0004 20.2634 44.895 20.5179 44.7073 20.7055L36.9498 28.4642L32.2361 33.178L29.2423 36.1717C30.0163 36.6837 30.9175 36.9701 31.845 36.999C32.7725 37.0279 33.6897 36.7981 34.4941 36.3353C35.2984 35.8726 35.9581 35.1951 36.3993 34.3788C36.8405 33.5624 37.0458 32.6394 36.9923 31.713C36.9774 31.4478 37.0685 31.1875 37.2454 30.9894C37.4224 30.7913 37.6709 30.6717 37.9361 30.6567C38.2013 30.6418 38.4616 30.7329 38.6597 30.9099C38.8577 31.0869 38.9774 31.3353 38.9923 31.6005C39.073 33.0165 38.7216 34.4236 37.9847 35.6355C37.2478 36.8473 36.1602 37.8067 34.8659 38.3867C33.5716 38.9666 32.1316 39.1397 30.7368 38.883C29.3419 38.6263 28.0579 37.952 27.0548 36.9492C25.8073 35.6971 25.0797 34.0193 25.0181 32.2528C24.9564 30.4863 25.5654 28.7618 26.7227 27.4258C27.8799 26.0897 29.4998 25.2409 31.257 25.0498C33.0142 24.8587 34.7787 25.3394 36.1961 26.3955L39.0373 23.5492C36.9533 21.819 34.3035 20.9197 31.5969 21.0241C28.8902 21.1285 26.3176 22.2292 24.3731 24.1148C22.4285 26.0005 21.2492 28.538 21.0616 31.2402C20.874 33.9424 21.6914 36.6185 23.3568 38.7548C25.0221 40.891 27.418 42.3366 30.0843 42.814C32.7505 43.2914 35.4992 42.7668 37.8022 41.3411C40.1053 39.9154 41.8005 37.6891 42.5621 35.0897C43.3237 32.4903 43.0981 29.7012 41.9286 27.258C41.8142 27.0186 41.7996 26.7437 41.888 26.4935C41.9763 26.2434 42.1605 26.0386 42.3998 25.9242C42.6392 25.8099 42.9142 25.7953 43.1643 25.8836C43.4144 25.972 43.6192 26.1561 43.7336 26.3955Z" fill="white"/>
</svg>
