<svg width="64" height="64" viewBox="0 0 64 64" fill="none" xmlns="http://www.w3.org/2000/svg">
<rect y="0.000488281" width="64" height="64" rx="32" fill="#FFB445"/>
<path d="M27 29.9142L33 35.9142V43.5005C33 43.6331 32.9473 43.7603 32.8536 43.854C32.7598 43.9478 32.6326 44.0005 32.5 44.0005H22C21.4696 44.0005 20.9609 43.7898 20.5858 43.4147C20.2107 43.0396 20 42.5309 20 42.0005V22.0005C20 21.4701 20.2107 20.9613 20.5858 20.5863C20.9609 20.2112 21.4696 20.0005 22 20.0005H24.5C24.6326 20.0005 24.7598 20.0532 24.8536 20.1469C24.9473 20.2407 25 20.3679 25 20.5005V35.173C24.3328 35.4089 23.7704 35.8731 23.4124 36.4835C23.0543 37.0939 22.9235 37.8112 23.0432 38.5087C23.1629 39.2062 23.5253 39.839 24.0663 40.2951C24.6074 40.7512 25.2923 41.0014 26 41.0014C26.7077 41.0014 27.3926 40.7512 27.9337 40.2951C28.4747 39.839 28.8371 39.2062 28.9568 38.5087C29.0765 37.8112 28.9457 37.0939 28.5876 36.4835C28.2296 35.8731 27.6672 35.4089 27 35.173V29.9142ZM26 39.0005C26.1978 39.0005 26.3911 38.9418 26.5556 38.832C26.72 38.7221 26.8482 38.5659 26.9239 38.3832C26.9996 38.2004 27.0194 37.9994 26.9808 37.8054C26.9422 37.6114 26.847 37.4332 26.7071 37.2934C26.5673 37.1535 26.3891 37.0583 26.1951 37.0197C26.0011 36.9811 25.8 37.0009 25.6173 37.0766C25.4346 37.1523 25.2784 37.2805 25.1685 37.4449C25.0586 37.6094 25 37.8027 25 38.0005C25 38.2657 25.1054 38.5201 25.2929 38.7076C25.4804 38.8951 25.7348 39.0005 26 39.0005ZM39 29.0005C39 28.8027 38.9414 28.6094 38.8315 28.4449C38.7216 28.2805 38.5654 28.1523 38.3827 28.0766C38.2 28.0009 37.9989 27.9811 37.8049 28.0197C37.6109 28.0583 37.4327 28.1535 37.2929 28.2934C37.153 28.4332 37.0578 28.6114 37.0192 28.8054C36.9806 28.9994 37.0004 29.2004 37.0761 29.3832C37.1518 29.5659 37.28 29.7221 37.4444 29.832C37.6089 29.9418 37.8022 30.0005 38 30.0005C38.2652 30.0005 38.5196 29.8951 38.7071 29.7076C38.8946 29.5201 39 29.2657 39 29.0005ZM42 20.0005H35.5C35.3674 20.0005 35.2402 20.0532 35.1464 20.1469C35.0527 20.2407 35 20.3679 35 20.5005V24.5867L36.7075 26.2942C37.3461 25.9892 38.072 25.9197 38.7568 26.098C39.4417 26.2764 40.0415 26.6912 40.4501 27.269C40.8587 27.8468 41.0499 28.5505 40.9899 29.2557C40.9299 29.9608 40.6225 30.6221 40.122 31.1225C39.6216 31.6229 38.9604 31.9303 38.2552 31.9904C37.55 32.0504 36.8463 31.8592 36.2685 31.4506C35.6907 31.042 35.2759 30.4422 35.0976 29.7573C34.9192 29.0725 34.9887 28.3466 35.2938 27.708L33.2938 25.708C33.2007 25.6152 33.1268 25.5049 33.0764 25.3835C33.026 25.2621 33.0001 25.1319 33 25.0005V20.5005C33 20.3679 32.9473 20.2407 32.8536 20.1469C32.7598 20.0532 32.6326 20.0005 32.5 20.0005H27.5C27.3674 20.0005 27.2402 20.0532 27.1464 20.1469C27.0527 20.2407 27 20.3679 27 20.5005V27.0867L34.7075 34.793C34.8003 34.8859 34.8739 34.9962 34.9241 35.1176C34.9743 35.239 35.0001 35.3691 35 35.5005V43.5005C35 43.6331 35.0527 43.7603 35.1464 43.854C35.2402 43.9478 35.3674 44.0005 35.5 44.0005H42C42.5304 44.0005 43.0391 43.7898 43.4142 43.4147C43.7893 43.0396 44 42.5309 44 42.0005V22.0005C44 21.4701 43.7893 20.9613 43.4142 20.5863C43.0391 20.2112 42.5304 20.0005 42 20.0005Z" fill="white"/>
</svg>
