<svg width="64" height="64" viewBox="0 0 64 64" fill="none" xmlns="http://www.w3.org/2000/svg">
<rect y="0.000488281" width="64" height="64" rx="32" fill="#FFB445"/>
<g clip-path="url(#clip0_15015_241)">
<path d="M47.7074 32.7081L43.7074 36.7081C43.6145 36.8011 43.5042 36.8748 43.3828 36.9252C43.2614 36.9755 43.1313 37.0014 42.9999 37.0014C42.8685 37.0014 42.7383 36.9755 42.6169 36.9252C42.4955 36.8748 42.3853 36.8011 42.2924 36.7081L40.2924 34.7081C40.1047 34.5205 39.9993 34.266 39.9993 34.0006C39.9993 33.7352 40.1047 33.4807 40.2924 33.2931C40.48 33.1055 40.7345 33 40.9999 33C41.2652 33 41.5197 33.1055 41.7074 33.2931L42.9999 34.5869L46.2924 31.2931C46.48 31.1055 46.7345 31 46.9999 31C47.2652 31 47.5197 31.1055 47.7074 31.2931C47.895 31.4807 48.0004 31.7352 48.0004 32.0006C48.0004 32.266 47.895 32.5205 47.7074 32.7081ZM33.9999 35.7106C35.5675 34.7342 36.7745 33.2739 37.4382 31.5504C38.1019 29.827 38.1863 27.9343 37.6786 26.1587C37.1708 24.383 36.0986 22.8211 34.624 21.7091C33.1495 20.5971 31.3529 19.9956 29.5061 19.9956C27.6593 19.9956 25.8627 20.5971 24.3882 21.7091C22.9137 22.8211 21.8414 24.383 21.3337 26.1587C20.8259 27.9343 20.9103 29.827 21.574 31.5504C22.2378 33.2739 23.4448 34.7342 25.0124 35.7106C22.4311 36.5556 20.1086 38.1344 18.2411 40.3569C18.1189 40.5022 18.0405 40.6793 18.0152 40.8675C17.99 41.0558 18.0188 41.2473 18.0984 41.4197C18.178 41.5922 18.3051 41.7384 18.4647 41.8412C18.6243 41.9441 18.81 41.9994 18.9999 42.0006H39.9999C40.1904 42.0008 40.3771 41.9465 40.5378 41.8442C40.6986 41.7419 40.8267 41.5958 40.9073 41.4231C40.9878 41.2504 41.0173 41.0583 40.9922 40.8694C40.9672 40.6805 40.8888 40.5027 40.7661 40.3569C38.8974 38.1344 36.5749 36.5556 33.9999 35.7106Z" fill="white"/>
</g>
<defs>
<clipPath id="clip0_15015_241">
<rect width="32" height="32" fill="white" transform="translate(16 16.0005)"/>
</clipPath>
</defs>
</svg>
