<svg width="669" height="668" viewBox="0 0 669 668" fill="none" xmlns="http://www.w3.org/2000/svg">
<path d="M473.556 223.722C522.82 194.369 587.53 200.836 629.969 243.274C679.713 292.967 680.052 373.375 631.134 423.548L629.969 424.728C579.884 474.864 498.649 474.864 448.513 424.728L357.785 334L448.513 243.274C456.211 235.576 464.626 229.058 473.555 223.721L473.556 223.722Z" stroke="#FFB445"/>
<path d="M424.72 448.462C474.856 498.547 474.856 579.78 424.72 629.917C374.635 680.001 293.4 680.052 243.264 629.917C200.825 587.478 194.307 522.768 223.711 473.504L223.712 473.505C229.048 464.577 235.566 456.161 243.264 448.462L333.991 357.734L424.72 448.462Z" stroke="#FFB445"/>
<path d="M243.263 38.083C293.348 -12.0017 374.581 -12.0529 424.718 38.083C467.156 80.5212 473.675 145.231 444.271 194.494C438.934 203.423 432.416 211.839 424.718 219.537L333.99 310.265L243.263 219.537C193.127 169.453 193.126 88.2192 243.263 38.083Z" stroke="#FFB445"/>
<path d="M38.083 243.27C88.1679 193.134 169.402 193.134 219.539 243.271L310.266 333.997L219.539 424.725C212.322 431.942 204.474 438.12 196.164 443.262L194.496 444.276C145.617 473.4 81.5317 467.261 39.082 425.713L38.083 424.725C-12.0529 374.64 -12.0019 293.355 38.083 243.271V243.27Z" stroke="#FFB445"/>
</svg>
