<svg width="81" height="80" viewBox="0 0 81 80" fill="none" xmlns="http://www.w3.org/2000/svg">
<rect x="0.333496" y="0.000244141" width="80" height="80" rx="40" fill="white"/>
<path d="M51.3335 29.0002H29.3335C28.8031 29.0002 28.2944 29.211 27.9193 29.586C27.5442 29.9611 27.3335 30.4698 27.3335 31.0002V49.0002C27.3335 49.5307 27.5442 50.0394 27.9193 50.4145C28.2944 50.7895 28.8031 51.0002 29.3335 51.0002H51.3335C51.8639 51.0002 52.3726 50.7895 52.7477 50.4145C53.1228 50.0394 53.3335 49.5307 53.3335 49.0002V31.0002C53.3335 30.4698 53.1228 29.9611 52.7477 29.586C52.3726 29.211 51.8639 29.0002 51.3335 29.0002ZM36.7847 46.1077C37.0218 46.2269 37.2018 46.4354 37.2851 46.6873C37.3684 46.9392 37.3483 47.2138 37.2291 47.4509C37.1099 47.6879 36.9015 47.8679 36.6496 47.9512C36.3977 48.0346 36.123 48.0144 35.886 47.8952C34.4863 47.1114 33.3244 45.9641 32.5231 44.5744C31.7217 43.1847 31.3107 41.6043 31.3335 40.0002C31.3107 38.3962 31.7217 36.8158 32.5231 35.4261C33.3244 34.0364 34.4863 32.889 35.886 32.1052C36.0034 32.0463 36.1312 32.0111 36.2622 32.0015C36.3932 31.992 36.5247 32.0084 36.6494 32.0497C36.7741 32.091 36.8894 32.1565 36.9887 32.2424C37.0881 32.3283 37.1696 32.4329 37.2285 32.5502C37.2874 32.6676 37.3227 32.7954 37.3322 32.9264C37.3417 33.0574 37.3254 33.189 37.284 33.3137C37.2427 33.4383 37.1772 33.5536 37.0914 33.653C37.0055 33.7523 36.9009 33.8338 36.7835 33.8927C36.6297 33.9727 33.3335 35.7202 33.3335 40.0002C33.3335 44.2802 36.6435 46.0352 36.7847 46.1077ZM44.7847 47.8952C44.5474 48.0139 44.2726 48.0335 44.0208 47.9495C43.769 47.8656 43.5609 47.6851 43.4422 47.4477C43.3236 47.2104 43.304 46.9356 43.388 46.6838C43.4719 46.432 43.6524 46.2239 43.8897 46.1052C44.0272 46.0352 47.3372 44.2902 47.3372 40.0002C47.3372 35.7102 44.0272 33.9652 43.886 33.8927C43.649 33.7736 43.469 33.5651 43.3856 33.3132C43.3023 33.0613 43.3224 32.7867 43.4416 32.5496C43.5608 32.3126 43.7693 32.1326 44.0212 32.0493C44.273 31.9659 44.5477 31.9861 44.7847 32.1052C46.1837 32.8895 47.3449 34.0371 48.1455 35.4268C48.9462 36.8165 49.3566 38.3966 49.3335 40.0002C49.3563 41.6043 48.9453 43.1847 48.1439 44.5744C47.3426 45.9641 46.1807 47.1114 44.781 47.8952H44.7847Z" fill="#FF5500"/>
</svg>
