<svg width="81" height="80" viewBox="0 0 81 80" fill="none" xmlns="http://www.w3.org/2000/svg">
<rect x="0.666504" y="0.000244141" width="80" height="80" rx="40" fill="white"/>
<path d="M37.6982 37.0002H43.7129V43.0002H37.6982V37.0002ZM54.7397 43.0002C54.7397 43.2655 54.6341 43.5198 54.4461 43.7074C54.2581 43.8949 54.0031 44.0002 53.7372 44.0002H51.7324V49.0002C51.7324 49.5307 51.5211 50.0394 51.1451 50.4145C50.7692 50.7895 50.2592 51.0002 49.7275 51.0002H44.7153V53.0002C44.7153 53.2655 44.6097 53.5198 44.4217 53.7074C44.2337 53.8949 43.9787 54.0002 43.7129 54.0002C43.447 54.0002 43.192 53.8949 43.004 53.7074C42.816 53.5198 42.7104 53.2655 42.7104 53.0002V51.0002H38.7007V53.0002C38.7007 53.2655 38.595 53.5198 38.407 53.7074C38.2191 53.8949 37.9641 54.0002 37.6982 54.0002C37.4324 54.0002 37.1774 53.8949 36.9894 53.7074C36.8014 53.5198 36.6958 53.2655 36.6958 53.0002V51.0002H31.6836C31.1519 51.0002 30.6419 50.7895 30.2659 50.4145C29.8899 50.0394 29.6787 49.5307 29.6787 49.0002V44.0002H27.6738C27.408 44.0002 27.153 43.8949 26.965 43.7074C26.777 43.5198 26.6714 43.2655 26.6714 43.0002C26.6714 42.735 26.777 42.4807 26.965 42.2931C27.153 42.1056 27.408 42.0002 27.6738 42.0002H29.6787V38.0002H27.6738C27.408 38.0002 27.153 37.8949 26.965 37.7074C26.777 37.5198 26.6714 37.2655 26.6714 37.0002C26.6714 36.735 26.777 36.4807 26.965 36.2931C27.153 36.1056 27.408 36.0002 27.6738 36.0002H29.6787V31.0002C29.6787 30.4698 29.8899 29.9611 30.2659 29.586C30.6419 29.211 31.1519 29.0002 31.6836 29.0002H36.6958V27.0002C36.6958 26.735 36.8014 26.4807 36.9894 26.2931C37.1774 26.1056 37.4324 26.0002 37.6982 26.0002C37.9641 26.0002 38.2191 26.1056 38.407 26.2931C38.595 26.4807 38.7007 26.735 38.7007 27.0002V29.0002H42.7104V27.0002C42.7104 26.735 42.816 26.4807 43.004 26.2931C43.192 26.1056 43.447 26.0002 43.7129 26.0002C43.9787 26.0002 44.2337 26.1056 44.4217 26.2931C44.6097 26.4807 44.7153 26.735 44.7153 27.0002V29.0002H49.7275C50.2592 29.0002 50.7692 29.211 51.1451 29.586C51.5211 29.9611 51.7324 30.4698 51.7324 31.0002V36.0002H53.7372C54.0031 36.0002 54.2581 36.1056 54.4461 36.2931C54.6341 36.4807 54.7397 36.735 54.7397 37.0002C54.7397 37.2655 54.6341 37.5198 54.4461 37.7074C54.2581 37.8949 54.0031 38.0002 53.7372 38.0002H51.7324V42.0002H53.7372C54.0031 42.0002 54.2581 42.1056 54.4461 42.2931C54.6341 42.4807 54.7397 42.735 54.7397 43.0002ZM45.7177 36.0002C45.7177 35.735 45.6121 35.4807 45.4241 35.2931C45.2361 35.1056 44.9812 35.0002 44.7153 35.0002H36.6958C36.4299 35.0002 36.1749 35.1056 35.9869 35.2931C35.799 35.4807 35.6933 35.735 35.6933 36.0002V44.0002C35.6933 44.2655 35.799 44.5198 35.9869 44.7074C36.1749 44.8949 36.4299 45.0002 36.6958 45.0002H44.7153C44.9812 45.0002 45.2361 44.8949 45.4241 44.7074C45.6121 44.5198 45.7177 44.2655 45.7177 44.0002V36.0002Z" fill="#FF5500"/>
</svg>
