<svg width="80" height="80" viewBox="0 0 80 80" fill="none" xmlns="http://www.w3.org/2000/svg">
<rect y="0.000244141" width="80" height="80" rx="40" fill="white"/>
<path d="M51 29.0002H29C28.4696 29.0002 27.9609 29.211 27.5858 29.586C27.2107 29.9611 27 30.4698 27 31.0002V49.0002C27 49.5307 27.2107 50.0394 27.5858 50.4145C27.9609 50.7895 28.4696 51.0002 29 51.0002H51C51.5304 51.0002 52.0391 50.7895 52.4142 50.4145C52.7893 50.0394 53 49.5307 53 49.0002V31.0002C53 30.4698 52.7893 29.9611 52.4142 29.586C52.0391 29.211 51.5304 29.0002 51 29.0002ZM40 44.0002C38.4092 43.9986 36.884 43.3659 35.7592 42.2411C34.6343 41.1162 34.0017 39.591 34 38.0002C34 37.735 34.1054 37.4807 34.2929 37.2931C34.4804 37.1056 34.7348 37.0002 35 37.0002C35.2652 37.0002 35.5196 37.1056 35.7071 37.2931C35.8946 37.4807 36 37.735 36 38.0002C36 39.0611 36.4214 40.0785 37.1716 40.8287C37.9217 41.5788 38.9391 42.0002 40 42.0002C41.0609 42.0002 42.0783 41.5788 42.8284 40.8287C43.5786 40.0785 44 39.0611 44 38.0002C44 37.735 44.1054 37.4807 44.2929 37.2931C44.4804 37.1056 44.7348 37.0002 45 37.0002C45.2652 37.0002 45.5196 37.1056 45.7071 37.2931C45.8946 37.4807 46 37.735 46 38.0002C45.9983 39.591 45.3657 41.1162 44.2408 42.2411C43.116 43.3659 41.5908 43.9986 40 44.0002ZM29 33.0002V31.0002H51V33.0002H29Z" fill="#FF5500"/>
</svg>
