<svg width="40" height="40" viewBox="0 0 40 40" fill="none" xmlns="http://www.w3.org/2000/svg">
<path d="M38.9541 18.9548H25.9642C24.6948 18.9548 24.0585 17.4196 24.9574 16.5222L34.1421 7.33714C34.5501 6.92909 34.5501 6.26617 34.1421 5.85968C33.7341 5.45163 33.0712 5.45163 32.6632 5.85968L23.4785 15.0447C22.5811 15.9421 21.0459 15.3074 21.0459 14.0364V1.04592C21.0459 0.467452 20.5784 0 20 0C19.4216 0 18.9541 0.467452 18.9541 1.04592V14.0364C18.9541 15.3058 17.4189 15.9421 16.5215 15.0447L7.33683 5.85968C6.92879 5.45163 6.26594 5.45163 5.8579 5.85968C5.44987 6.26773 5.44987 6.92909 5.8579 7.33714L15.0426 16.5222C15.94 17.4196 15.3052 18.9548 14.0358 18.9548H1.04589C0.469016 18.9548 0 19.4223 0 20.0008C0 20.5793 0.467453 21.0467 1.04589 21.0467H14.0358C15.3052 21.0467 15.9415 22.582 15.0426 23.4794L5.8579 32.6645C5.44987 33.0725 5.44987 33.7338 5.8579 34.1419C6.26594 34.5499 6.92723 34.5499 7.33683 34.1419L16.5215 24.9568C17.4189 24.0594 18.9541 24.6942 18.9541 25.9637V38.9541C18.9541 39.531 19.4216 40 20 40C20.5784 40 21.0459 39.531 21.0459 38.9541V25.9637C21.0459 24.6942 22.5811 24.0579 23.4785 24.9553L32.6632 34.1403C33.0712 34.5484 33.7325 34.5484 34.1421 34.1403C34.5501 33.7323 34.5501 33.0694 34.1421 32.6629L24.9574 23.4778C24.06 22.5804 24.6948 21.0452 25.9642 21.0452H38.9541C39.531 21.0452 40 20.5777 40 19.9992C40 19.4208 39.5325 18.9533 38.9541 18.9533V18.9548Z" fill="#FFB445"/>
</svg>
