<svg width="40" height="40" viewBox="0 0 40 40" fill="none" xmlns="http://www.w3.org/2000/svg">
<path d="M37.7448 14.5464C35.1936 11.9953 31.3036 11.6066 28.3422 13.3711C27.8054 13.6919 27.2995 14.0837 26.8368 14.5464L21.3828 20.0004L26.8368 25.4543C29.8507 28.4682 34.734 28.4682 37.7448 25.4543C40.7555 22.4435 40.7586 17.5572 37.7448 14.5464Z" fill="#FF5500"/>
<path d="M19.9996 21.3793L14.5457 26.8332C14.0829 27.2959 13.6912 27.8019 13.3703 28.3386C11.6027 31.3 11.9945 35.19 14.5457 37.7411C17.5595 40.755 22.4428 40.7519 25.4536 37.7411C28.4675 34.7273 28.4675 29.844 25.4536 26.8332L19.9996 21.3793Z" fill="#FF5500"/>
<path d="M19.9995 18.6214L25.4535 13.1674C25.9162 12.7047 26.308 12.1988 26.6288 11.662C28.3965 8.70058 28.0047 4.81063 25.4535 2.25949C22.4396 -0.754379 17.5564 -0.751294 14.5456 2.25949C11.5317 5.27335 11.5317 10.1566 14.5456 13.1674L19.9995 18.6214Z" fill="#FF5500"/>
<path d="M18.6212 20.0002L13.1672 14.5462C10.1533 11.5324 5.27005 11.5324 2.25925 14.5462C-0.751542 17.557 -0.754627 22.4434 2.25925 25.4541C4.81041 28.0053 8.70038 28.394 11.6618 26.6295C12.1986 26.3086 12.7045 25.9169 13.1672 25.4541L18.6212 20.0002Z" fill="#FF5500"/>
</svg>
