<svg width="267" height="266" viewBox="0 0 267 266" fill="none" xmlns="http://www.w3.org/2000/svg">
<path d="M97.3125 260.778L79.3477 254.24L131.39 139.204L97.3125 260.778Z" stroke="#FFB445"/>
<path d="M55.8008 240.645L41.1572 228.357L129.401 138.062L55.8008 240.645Z" stroke="#FFB445"/>
<path d="M23.6807 207.528L14.123 190.972L127.929 136.303L23.6807 207.528Z" stroke="#FFB445"/>
<path d="M4.82422 165.42L1.50293 146.595L127.144 134.148L4.82422 165.42Z" stroke="#FFB445"/>
<path d="M127.144 131.853L1.50391 119.404L4.82422 100.579L127.144 131.853Z" stroke="#FFB445"/>
<path d="M127.929 129.697L14.123 75.0273L23.6807 58.4716L127.929 129.697Z" stroke="#FFB445"/>
<path d="M129.401 127.939L41.1572 37.6436L55.8018 25.3546L129.401 127.939Z" stroke="#FFB445"/>
<path d="M131.39 126.797L79.3477 11.7599L97.3125 5.22089L131.39 126.797Z" stroke="#FFB445"/>
<path d="M143.209 0.5L133.649 126.396L124.093 0.5H143.209Z" stroke="#FFB445"/>
<path d="M187.95 11.759L135.908 126.797L169.986 5.22089L187.95 11.759Z" stroke="#FFB445"/>
<path d="M226.141 37.6436L137.895 127.942L211.497 25.3546L226.141 37.6436Z" stroke="#FFB445"/>
<path d="M253.178 75.0273L139.374 129.695L243.621 58.4716L253.178 75.0273Z" stroke="#FFB445"/>
<path d="M265.798 119.404L140.157 131.853L262.478 100.579L265.798 119.404Z" stroke="#FFB445"/>
<path d="M265.799 146.595L262.478 165.42L140.157 134.148L265.799 146.595Z" stroke="#FFB445"/>
<path d="M253.179 190.971L243.621 207.528L139.374 136.305L253.179 190.971Z" stroke="#FFB445"/>
<path d="M226.141 228.357L211.498 240.645L137.895 138.058L226.141 228.357Z" stroke="#FFB445"/>
<path d="M187.95 254.241L169.986 260.778L135.908 139.204L187.95 254.241Z" stroke="#FFB445"/>
<path d="M143.209 265.5H124.093L133.649 139.604L143.209 265.5Z" stroke="#FFB445"/>
</svg>
