<svg width="99" height="25" viewBox="0 0 99 25" fill="none" xmlns="http://www.w3.org/2000/svg">
<path d="M20.25 0.500488H3.75C1.67893 0.500488 0 2.17942 0 4.25049V20.7505C0 22.8216 1.67893 24.5005 3.75 24.5005H20.25C22.3211 24.5005 24 22.8216 24 20.7505V4.25049C24 2.17942 22.3211 0.500488 20.25 0.500488Z" fill="white"/>
<path d="M8.7 18.5005H6.15V10.4755H8.7V18.5005ZM7.425 9.35049C6.6 9.35049 6 8.75049 6 7.92549C6 7.10049 6.675 6.50049 7.425 6.50049C8.25 6.50049 8.85 7.10049 8.85 7.92549C8.85 8.75049 8.25 9.35049 7.425 9.35049ZM18 18.5005H15.45V14.1505C15.45 12.8755 14.925 12.5005 14.175 12.5005C13.425 12.5005 12.675 13.1005 12.675 14.2255V18.5005H10.125V10.4755H12.525V11.6005C12.75 11.0755 13.65 10.2505 14.925 10.2505C16.35 10.2505 17.85 11.0755 17.85 13.5505V18.5005H18Z" fill="black"/>
<path d="M41.0625 18.0005V6.35986H42.7969V16.4771H48.3047V18.0005H41.0625ZM49.4572 18.0005V9.75049H51.1056V18.0005H49.4572ZM50.2775 8.32861C49.6916 8.32861 49.2384 7.8833 49.2384 7.3208C49.2384 6.75049 49.6916 6.30518 50.2775 6.30518C50.8634 6.30518 51.3244 6.75049 51.3244 7.3208C51.3244 7.8833 50.8634 8.32861 50.2775 8.32861ZM54.4613 13.2505V18.0005H52.8128V9.75049H54.43V10.9927C54.9925 10.0552 55.8363 9.58643 56.9222 9.58643C58.6175 9.58643 59.9066 10.7036 59.9066 12.8599V18.0005H58.2581V13.063C58.2581 11.7427 57.5941 11.063 56.4534 11.063C55.3284 11.063 54.4613 11.7192 54.4613 13.2505ZM61.6059 18.0005V6.35986H63.2544V13.2739H63.2778L66.7934 9.75049H68.8403L65.3481 13.2974L69.0747 18.0005H67.0513L64.0903 14.2896L63.2544 15.1021V18.0005H61.6059ZM72.9538 18.188C70.5084 18.188 69.0241 16.3833 69.0241 13.8911C69.0241 11.3755 70.6178 9.56299 72.8678 9.56299C75.2038 9.56299 76.7194 11.3286 76.7194 13.8755V14.3208H70.6491C70.7038 15.8052 71.5319 16.813 72.9772 16.813C74.0553 16.813 74.7741 16.2739 75.0084 15.4927H76.5944C76.2897 17.0864 74.8209 18.188 72.9538 18.188ZM70.6647 13.0708H75.11C74.9772 11.7583 74.1334 10.938 72.8834 10.938C71.6413 10.938 70.8053 11.7583 70.6647 13.0708ZM81.1609 18.1646C79.0125 18.1646 77.5828 16.4302 77.5828 13.8755C77.5828 11.3286 79.0203 9.58643 81.1531 9.58643C82.2234 9.58643 83.1531 10.0317 83.6844 10.9458H83.7V6.35986H85.3484V18.0005H83.7313V16.7427H83.7156C83.1609 17.7036 82.2391 18.1646 81.1609 18.1646ZM81.4969 16.7427C82.9031 16.7427 83.8094 15.6099 83.8094 13.8755C83.8094 12.1411 82.9031 11.0005 81.4969 11.0005C80.1688 11.0005 79.2547 12.0083 79.2547 13.8755C79.2547 15.7349 80.1688 16.7427 81.4969 16.7427ZM88.915 6.35986V18.0005H87.1806V6.35986H88.915ZM92.3956 13.2505V18.0005H90.7472V9.75049H92.3644V10.9927C92.9269 10.0552 93.7706 9.58643 94.8566 9.58643C96.5519 9.58643 97.8409 10.7036 97.8409 12.8599V18.0005H96.1925V13.063C96.1925 11.7427 95.5284 11.063 94.3878 11.063C93.2628 11.063 92.3956 11.7192 92.3956 13.2505Z" fill="white"/>
</svg>
