<svg width="99" height="24" viewBox="0 0 99 24" fill="none" xmlns="http://www.w3.org/2000/svg">
<path d="M20.25 0.000488281H3.75C1.67893 0.000488281 0 1.67942 0 3.75049V20.2505C0 22.3216 1.67893 24.0005 3.75 24.0005H20.25C22.3211 24.0005 24 22.3216 24 20.2505V3.75049C24 1.67942 22.3211 0.000488281 20.25 0.000488281Z" fill="#4784FF"/>
<path d="M8.7 18.0005H6.15V9.97549H8.7V18.0005ZM7.425 8.85049C6.6 8.85049 6 8.25049 6 7.42549C6 6.60049 6.675 6.00049 7.425 6.00049C8.25 6.00049 8.85 6.60049 8.85 7.42549C8.85 8.25049 8.25 8.85049 7.425 8.85049ZM18 18.0005H15.45V13.6505C15.45 12.3755 14.925 12.0005 14.175 12.0005C13.425 12.0005 12.675 12.6005 12.675 13.7255V18.0005H10.125V9.97549H12.525V11.1005C12.75 10.5755 13.65 9.75049 14.925 9.75049C16.35 9.75049 17.85 10.5755 17.85 13.0505V18.0005H18Z" fill="white"/>
<path d="M41.0625 17.5005V5.85986H42.7969V15.9771H48.3047V17.5005H41.0625ZM49.4572 17.5005V9.25049H51.1056V17.5005H49.4572ZM50.2775 7.82861C49.6916 7.82861 49.2384 7.3833 49.2384 6.8208C49.2384 6.25049 49.6916 5.80518 50.2775 5.80518C50.8634 5.80518 51.3244 6.25049 51.3244 6.8208C51.3244 7.3833 50.8634 7.82861 50.2775 7.82861ZM54.4613 12.7505V17.5005H52.8128V9.25049H54.43V10.4927C54.9925 9.55518 55.8363 9.08643 56.9222 9.08643C58.6175 9.08643 59.9066 10.2036 59.9066 12.3599V17.5005H58.2581V12.563C58.2581 11.2427 57.5941 10.563 56.4534 10.563C55.3284 10.563 54.4613 11.2192 54.4613 12.7505ZM61.6059 17.5005V5.85986H63.2544V12.7739H63.2778L66.7934 9.25049H68.8403L65.3481 12.7974L69.0747 17.5005H67.0513L64.0903 13.7896L63.2544 14.6021V17.5005H61.6059ZM72.9538 17.688C70.5084 17.688 69.0241 15.8833 69.0241 13.3911C69.0241 10.8755 70.6178 9.06299 72.8678 9.06299C75.2038 9.06299 76.7194 10.8286 76.7194 13.3755V13.8208H70.6491C70.7038 15.3052 71.5319 16.313 72.9772 16.313C74.0553 16.313 74.7741 15.7739 75.0084 14.9927H76.5944C76.2897 16.5864 74.8209 17.688 72.9538 17.688ZM70.6647 12.5708H75.11C74.9772 11.2583 74.1334 10.438 72.8834 10.438C71.6413 10.438 70.8053 11.2583 70.6647 12.5708ZM81.1609 17.6646C79.0125 17.6646 77.5828 15.9302 77.5828 13.3755C77.5828 10.8286 79.0203 9.08643 81.1531 9.08643C82.2234 9.08643 83.1531 9.53174 83.6844 10.4458H83.7V5.85986H85.3484V17.5005H83.7313V16.2427H83.7156C83.1609 17.2036 82.2391 17.6646 81.1609 17.6646ZM81.4969 16.2427C82.9031 16.2427 83.8094 15.1099 83.8094 13.3755C83.8094 11.6411 82.9031 10.5005 81.4969 10.5005C80.1688 10.5005 79.2547 11.5083 79.2547 13.3755C79.2547 15.2349 80.1688 16.2427 81.4969 16.2427ZM88.915 5.85986V17.5005H87.1806V5.85986H88.915ZM92.3956 12.7505V17.5005H90.7472V9.25049H92.3644V10.4927C92.9269 9.55518 93.7706 9.08643 94.8566 9.08643C96.5519 9.08643 97.8409 10.2036 97.8409 12.3599V17.5005H96.1925V12.563C96.1925 11.2427 95.5284 10.563 94.3878 10.563C93.2628 10.563 92.3956 11.2192 92.3956 12.7505Z" fill="black"/>
</svg>
