<svg width="33" height="32" viewBox="0 0 33 32" fill="none" xmlns="http://www.w3.org/2000/svg">
<g clip-path="url(#clip0_4428_22473)">
<path d="M28.46 8.26877L17.46 2.25002C17.1661 2.08763 16.8358 2.00244 16.5 2.00244C16.1642 2.00244 15.8339 2.08763 15.54 2.25002L4.54 8.27127C4.22586 8.44315 3.96363 8.69622 3.78069 9.00405C3.59775 9.31188 3.50081 9.66319 3.5 10.0213V21.9763C3.50081 22.3344 3.59775 22.6857 3.78069 22.9935C3.96363 23.3013 4.22586 23.5544 4.54 23.7263L15.54 29.7475C15.8339 29.9099 16.1642 29.9951 16.5 29.9951C16.8358 29.9951 17.1661 29.9099 17.46 29.7475L28.46 23.7263C28.7741 23.5544 29.0364 23.3013 29.2193 22.9935C29.4023 22.6857 29.4992 22.3344 29.5 21.9763V10.0225C29.4999 9.6638 29.4032 9.31172 29.2203 9.00317C29.0373 8.69462 28.7747 8.44096 28.46 8.26877ZM16.5 15L6.45625 9.50002L16.5 4.00002L26.5438 9.50002L16.5 15ZM17.5 27.455V16.7288L27.5 11.2563V21.9763L17.5 27.455Z" fill="#FF5500"/>
</g>
<defs>
<clipPath id="clip0_4428_22473">
<rect width="32" height="32" fill="white" transform="translate(0.5)"/>
</clipPath>
</defs>
</svg>
