<svg width="80" height="80" viewBox="0 0 80 80" fill="none" xmlns="http://www.w3.org/2000/svg">
<circle cx="40" cy="40.0002" r="40" fill="#F8F8F8"/>
<path d="M55.1633 39.1639H44.7714C43.7558 39.1639 43.2468 37.9357 43.9659 37.2178L51.3137 29.8697C51.6401 29.5433 51.6401 29.0129 51.3137 28.6877C50.9872 28.3613 50.457 28.3613 50.1305 28.6877L42.7828 36.0358C42.0649 36.7537 40.8367 36.2459 40.8367 35.2291V24.8367C40.8367 24.374 40.4628 24 40 24C39.5372 24 39.1633 24.374 39.1633 24.8367V35.2291C39.1633 36.2447 37.9351 36.7537 37.2172 36.0358L29.8695 28.6877C29.543 28.3613 29.0128 28.3613 28.6863 28.6877C28.3599 29.0142 28.3599 29.5433 28.6863 29.8697L36.0341 37.2178C36.752 37.9357 36.2442 39.1639 35.2286 39.1639H24.8367C24.3752 39.1639 24 39.5379 24 40.0006C24 40.4634 24.374 40.8374 24.8367 40.8374H35.2286C36.2442 40.8374 36.7532 42.0656 36.0341 42.7835L28.6863 50.1316C28.3599 50.458 28.3599 50.9871 28.6863 51.3135C29.0128 51.64 29.5418 51.64 29.8695 51.3135L37.2172 43.9655C37.9351 43.2475 39.1633 43.7553 39.1633 44.7709V55.1633C39.1633 55.6248 39.5372 56 40 56C40.4628 56 40.8367 55.6248 40.8367 55.1633V44.7709C40.8367 43.7553 42.0649 43.2463 42.7828 43.9642L50.1305 51.3123C50.457 51.6387 50.986 51.6387 51.3137 51.3123C51.6401 50.9858 51.6401 50.4555 51.3137 50.1303L43.9659 42.7823C43.248 42.0644 43.7558 40.8361 44.7714 40.8361H55.1633C55.6248 40.8361 56 40.4622 56 39.9994C56 39.5366 55.626 39.1626 55.1633 39.1626V39.1639Z" fill="#FFB445"/>
<path d="M55.1633 39.1639H44.7714C43.7558 39.1639 43.2468 37.9357 43.9659 37.2178L51.3137 29.8697C51.6401 29.5433 51.6401 29.0129 51.3137 28.6877C50.9872 28.3613 50.457 28.3613 50.1305 28.6877L42.7828 36.0358C42.0649 36.7537 40.8367 36.2459 40.8367 35.2291V24.8367C40.8367 24.374 40.4628 24 40 24C39.5372 24 39.1633 24.374 39.1633 24.8367V35.2291C39.1633 36.2447 37.9351 36.7537 37.2172 36.0358L29.8695 28.6877C29.543 28.3613 29.0128 28.3613 28.6863 28.6877C28.3599 29.0142 28.3599 29.5433 28.6863 29.8697L36.0341 37.2178C36.752 37.9357 36.2442 39.1639 35.2286 39.1639H24.8367C24.3752 39.1639 24 39.5379 24 40.0006C24 40.4634 24.374 40.8374 24.8367 40.8374H35.2286C36.2442 40.8374 36.7532 42.0656 36.0341 42.7835L28.6863 50.1316C28.3599 50.458 28.3599 50.9871 28.6863 51.3135C29.0128 51.64 29.5418 51.64 29.8695 51.3135L37.2172 43.9655C37.9351 43.2475 39.1633 43.7553 39.1633 44.7709V55.1633C39.1633 55.6248 39.5372 56 40 56C40.4628 56 40.8367 55.6248 40.8367 55.1633V44.7709C40.8367 43.7553 42.0649 43.2463 42.7828 43.9642L50.1305 51.3123C50.457 51.6387 50.986 51.6387 51.3137 51.3123C51.6401 50.9858 51.6401 50.4555 51.3137 50.1303L43.9659 42.7823C43.248 42.0644 43.7558 40.8361 44.7714 40.8361H55.1633C55.6248 40.8361 56 40.4622 56 39.9994C56 39.5366 55.626 39.1626 55.1633 39.1626V39.1639Z" fill="#FF6A20"/>
</svg>
