<svg width="33" height="32" viewBox="0 0 33 32" fill="none" xmlns="http://www.w3.org/2000/svg">
<path d="M14.2075 18.2925C14.3005 18.3854 14.3742 18.4957 14.4246 18.6171C14.4749 18.7385 14.5008 18.8686 14.5008 19C14.5008 19.1314 14.4749 19.2615 14.4246 19.3829C14.3742 19.5043 14.3005 19.6146 14.2075 19.7075L10.9138 23L13.2075 25.2925C13.3475 25.4324 13.4429 25.6106 13.4815 25.8047C13.5202 25.9988 13.5004 26.2 13.4246 26.3828C13.3489 26.5656 13.2206 26.7218 13.056 26.8317C12.8914 26.9416 12.6979 27.0002 12.5 27H6.5C6.23478 27 5.98043 26.8946 5.79289 26.7071C5.60536 26.5196 5.5 26.2652 5.5 26V20C5.49984 19.8021 5.55841 19.6086 5.66828 19.444C5.77815 19.2794 5.93439 19.1511 6.11721 19.0754C6.30003 18.9996 6.50122 18.9798 6.69531 19.0185C6.88939 19.0571 7.06764 19.1525 7.2075 19.2925L9.5 21.5863L12.7925 18.2925C12.8854 18.1995 12.9957 18.1258 13.1171 18.0754C13.2385 18.0251 13.3686 17.9992 13.5 17.9992C13.6314 17.9992 13.7615 18.0251 13.8829 18.0754C14.0043 18.1258 14.1146 18.1995 14.2075 18.2925ZM10.9138 9L13.2075 6.7075C13.3475 6.56764 13.4429 6.38939 13.4815 6.19531C13.5202 6.00122 13.5004 5.80003 13.4246 5.61721C13.3489 5.43439 13.2206 5.27815 13.056 5.16828C12.8914 5.05841 12.6979 4.99984 12.5 5H6.5C6.23478 5 5.98043 5.10536 5.79289 5.29289C5.60536 5.48043 5.5 5.73478 5.5 6V12C5.49984 12.1979 5.55841 12.3914 5.66828 12.556C5.77815 12.7206 5.93439 12.8489 6.11721 12.9246C6.30003 13.0004 6.50122 13.0202 6.69531 12.9815C6.88939 12.9429 7.06764 12.8475 7.2075 12.7075L9.5 10.4138L12.7925 13.7075C12.9801 13.8951 13.2346 14.0006 13.5 14.0006C13.7654 14.0006 14.0199 13.8951 14.2075 13.7075C14.3951 13.5199 14.5006 13.2654 14.5006 13C14.5006 12.7346 14.3951 12.4801 14.2075 12.2925L10.9138 9ZM26.5 5H20.5C20.3021 4.99984 20.1086 5.05841 19.944 5.16828C19.7794 5.27815 19.6511 5.43439 19.5754 5.61721C19.4996 5.80003 19.4798 6.00122 19.5185 6.19531C19.5571 6.38939 19.6525 6.56764 19.7925 6.7075L22.0863 9L18.7925 12.2925C18.6049 12.4801 18.4994 12.7346 18.4994 13C18.4994 13.2654 18.6049 13.5199 18.7925 13.7075C18.9801 13.8951 19.2346 14.0006 19.5 14.0006C19.7654 14.0006 20.0199 13.8951 20.2075 13.7075L23.5 10.4138L25.7925 12.7075C25.9324 12.8475 26.1106 12.9429 26.3047 12.9815C26.4988 13.0202 26.7 13.0004 26.8828 12.9246C27.0656 12.8489 27.2218 12.7206 27.3317 12.556C27.4416 12.3914 27.5002 12.1979 27.5 12V6C27.5 5.73478 27.3946 5.48043 27.2071 5.29289C27.0196 5.10536 26.7652 5 26.5 5ZM26.8825 19.0763C26.6998 19.0005 26.4987 18.9805 26.3047 19.019C26.1107 19.0575 25.9324 19.1527 25.7925 19.2925L23.5 21.5863L20.2075 18.2925C20.0199 18.1049 19.7654 17.9994 19.5 17.9994C19.2346 17.9994 18.9801 18.1049 18.7925 18.2925C18.6049 18.4801 18.4994 18.7346 18.4994 19C18.4994 19.2654 18.6049 19.5199 18.7925 19.7075L22.0863 23L19.7925 25.2925C19.6525 25.4324 19.5571 25.6106 19.5185 25.8047C19.4798 25.9988 19.4996 26.2 19.5754 26.3828C19.6511 26.5656 19.7794 26.7218 19.944 26.8317C20.1086 26.9416 20.3021 27.0002 20.5 27H26.5C26.7652 27 27.0196 26.8946 27.2071 26.7071C27.3946 26.5196 27.5 26.2652 27.5 26V20C27.5 19.8022 27.4413 19.6089 27.3314 19.4445C27.2214 19.28 27.0652 19.1519 26.8825 19.0763Z" fill="#FF5500"/>
</svg>
