<svg width="365" height="42" viewBox="0 0 365 42" fill="none" xmlns="http://www.w3.org/2000/svg">
<path d="M1.5 41L1.6454 20.0769H19.7954L19.65 41H37.8L38.0352 7.15385H56.1852L55.95 41H74.1L74.3324 7.5641H92.4824L92.25 41H110.4L110.591 13.5128H128.741L128.55 41H146.7L146.978 1H165.128L164.85 41H183L183.153 19.0513H201.303L201.15 41H219.3L219.487 14.1282H237.637L237.45 41H255.6L255.751 19.2564H273.901L273.75 41H291.9L292.157 4.07692H310.307L310.05 41H328.2L328.368 16.7949H346.518L346.35 41H364.5" stroke="#D7D7DB" stroke-width="2" stroke-linejoin="round"/>
</svg>
