<svg width="80" height="80" viewBox="0 0 80 80" fill="none" xmlns="http://www.w3.org/2000/svg">
<path d="M40.3718 62.7404C34.1083 62.7404 29.085 60.6617 25.3021 56.5672C21.5192 52.4727 19.6588 46.9294 19.6588 40.0632C19.6588 33.1341 21.5192 27.5908 25.3021 23.5593C29.085 19.4648 34.1083 17.449 40.3718 17.449C45.8911 17.449 50.3561 18.9609 53.891 21.9845C57.4258 25.0081 59.4724 29.1656 60.0305 34.3939H49.4259C48.6198 29.0396 45.643 26.331 40.3097 26.331C37.0849 26.331 34.5423 27.5278 32.8059 29.8585C31.0695 32.1892 30.1393 35.6538 30.1393 40.0632C30.1393 44.4097 31.0075 47.8113 32.8059 50.142C34.5423 52.4727 37.0849 53.6695 40.3097 53.6695C42.9143 53.6695 45.0229 52.9767 46.6973 51.5278C48.3717 50.079 49.3639 48.0003 49.736 45.2916H60.0925C59.5964 50.5829 57.5499 54.8034 54.0151 57.953C50.4802 61.1656 45.9531 62.7404 40.3718 62.7404ZM40.0617 70.5514C48.7438 70.5514 55.9375 67.5908 61.6429 61.7325C67.2862 55.8743 70.1389 48.6301 70.1389 40.0632C70.1389 31.4963 67.3482 24.1892 61.6429 18.268C55.9375 12.4727 48.7438 9.57502 40.0617 9.57502C31.4416 9.57502 24.3099 12.4727 18.6666 18.268C13.0232 24.1892 10.1705 31.4963 10.1705 40.0632C10.1705 48.6301 12.9612 55.8743 18.6666 61.7325C24.2479 67.5908 31.3796 70.5514 40.0617 70.5514ZM68.5886 68.4097C60.9607 76.1577 51.4724 80.0002 39.9996 80.0002C28.5269 80.0002 19.0386 76.1577 11.4108 68.4097C3.78293 60.6616 0 51.2128 0 40.0632C0 28.8506 3.78293 19.3388 11.4108 11.5908C19.0386 3.84278 28.5269 0.000244141 39.9996 0.000244141C51.4724 0.000244141 60.9607 3.84278 68.5886 11.5908C76.2164 19.3388 79.9993 28.7876 79.9993 40.0632C80.0613 51.3388 76.2164 60.7876 68.5886 68.4097Z" fill="#FF5500"/>
</svg>
