<svg width="41" height="40" viewBox="0 0 41 40" fill="none" xmlns="http://www.w3.org/2000/svg">
<rect x="0.333496" y="0.000488281" width="40" height="40" rx="8" fill="#FF5500"/>
<path d="M17.2529 12.7349C17.1907 12.5809 17.1923 12.4086 17.2572 12.2558C17.3221 12.1029 17.445 11.9822 17.599 11.92C17.7529 11.8579 17.9253 11.8594 18.0781 11.9243C18.2309 11.9892 18.3517 12.1122 18.4138 12.2661L19.0388 13.8286C19.0696 13.9048 19.0851 13.9864 19.0843 14.0686C19.0836 14.1508 19.0667 14.232 19.0345 14.3077C19.0024 14.3834 18.9557 14.452 18.897 14.5096C18.8384 14.5672 18.769 14.6127 18.6927 14.6434C18.6165 14.6742 18.535 14.6897 18.4527 14.689C18.3705 14.6882 18.2893 14.6713 18.2136 14.6392C18.138 14.607 18.0694 14.5603 18.0118 14.5016C17.9542 14.443 17.9087 14.3736 17.8779 14.2974L17.2529 12.7349ZM12.599 18.0809L14.1615 18.7059C14.2377 18.7367 14.3192 18.7522 14.4015 18.7515C14.4837 18.7507 14.5649 18.7338 14.6406 18.7017C14.7162 18.6695 14.7848 18.6228 14.8424 18.5641C14.9 18.5055 14.9455 18.4361 14.9763 18.3599C15.0071 18.2836 15.0226 18.2021 15.0218 18.1199C15.0211 18.0377 15.0042 17.9564 14.972 17.8808C14.9399 17.8051 14.8932 17.7365 14.8345 17.6789C14.7759 17.6213 14.7065 17.5758 14.6302 17.545L13.0677 16.92C12.9138 16.8579 12.7414 16.8594 12.5886 16.9243C12.4358 16.9892 12.315 17.1122 12.2529 17.2661C12.1907 17.4201 12.1923 17.5924 12.2572 17.7452C12.3221 17.898 12.445 18.0188 12.599 18.0809ZM28.0677 21.92L26.5052 21.295C26.3513 21.2329 26.1789 21.2344 26.0261 21.2993C25.8733 21.3642 25.7525 21.4872 25.6904 21.6411C25.6282 21.7951 25.6298 21.9674 25.6947 22.1202C25.7596 22.273 25.8825 22.3938 26.0365 22.4559L27.599 23.0809C27.7529 23.1431 27.9253 23.1416 28.0781 23.0767C28.2309 23.0118 28.3517 22.8888 28.4138 22.7349C28.476 22.5809 28.4744 22.4086 28.4095 22.2558C28.3446 22.1029 28.2217 21.9822 28.0677 21.92ZM22.7888 25.7036C22.7267 25.5497 22.6059 25.4267 22.4531 25.3618C22.3003 25.2969 22.1279 25.2954 21.974 25.3575C21.82 25.4197 21.6971 25.5404 21.6322 25.6933C21.5673 25.8461 21.5657 26.0184 21.6279 26.1724L22.2529 27.7349C22.315 27.8888 22.4358 28.0118 22.5886 28.0767C22.7414 28.1416 22.9138 28.1431 23.0677 28.0809C23.2217 28.0188 23.3446 27.898 23.4095 27.7452C23.4744 27.5924 23.476 27.4201 23.4138 27.2661L22.7888 25.7036ZM28.9201 11.4474C28.8627 11.3862 28.7937 11.3372 28.717 11.3032C28.6404 11.2693 28.5577 11.2511 28.4738 11.2498C28.39 11.2485 28.3068 11.2641 28.2291 11.2956C28.1514 11.3271 28.0808 11.3739 28.0216 11.4333L23.9271 15.5278L23.5068 15.1075C23.2746 14.8751 22.9989 14.6907 22.6954 14.5649C22.3919 14.4391 22.0666 14.3743 21.738 14.3743C21.4095 14.3743 21.0842 14.4391 20.7807 14.5649C20.4772 14.6907 20.2015 14.8751 19.9693 15.1075L18.6255 16.4489C18.5965 16.4779 18.5734 16.5124 18.5577 16.5503C18.542 16.5883 18.5339 16.6289 18.5339 16.67C18.5339 16.7111 18.542 16.7517 18.5577 16.7897C18.5734 16.8276 18.5965 16.8621 18.6255 16.8911L23.4459 21.7083C23.4749 21.7373 23.5093 21.7604 23.5473 21.7761C23.5852 21.7919 23.6259 21.7999 23.6669 21.7999C23.708 21.7999 23.7487 21.7919 23.7866 21.7761C23.8245 21.7604 23.859 21.7373 23.888 21.7083L25.1959 20.4005C25.6698 19.9356 25.9446 19.3048 25.9623 18.6411C25.9687 18.3056 25.9072 17.9722 25.7814 17.6611C25.6556 17.35 25.4681 17.0676 25.2302 16.8309L24.8099 16.4114L28.888 12.3356C29.0069 12.2203 29.0766 12.0635 29.0826 11.8979C29.0885 11.7324 29.0303 11.571 28.9201 11.4474ZM17.024 17.0583C16.9648 16.9991 16.8943 16.9523 16.8167 16.9209C16.739 16.8895 16.6559 16.8739 16.5722 16.8752C16.4884 16.8765 16.4058 16.8947 16.3292 16.9285C16.2526 16.9624 16.1836 17.0113 16.1263 17.0724C16.0161 17.196 15.9579 17.3574 15.9638 17.5229C15.9698 17.6885 16.0395 17.8453 16.1583 17.9606L16.6357 18.438L15.438 19.6341C15.2007 19.8709 15.0137 20.1532 14.8883 20.4642C14.7629 20.7751 14.7017 21.1082 14.7083 21.4434C14.7248 22.107 14.9985 22.7381 15.4716 23.2036L15.8623 23.5895L11.7779 27.6669C11.6626 27.7791 11.5938 27.9306 11.585 28.0912C11.5761 28.2518 11.628 28.4099 11.7302 28.5341C11.7864 28.5992 11.8554 28.6521 11.9329 28.6893C12.0104 28.7266 12.0948 28.7474 12.1807 28.7506C12.2667 28.7537 12.3523 28.7391 12.4324 28.7076C12.5124 28.6762 12.5851 28.6285 12.6459 28.5677L16.7396 24.4731L17.1591 24.8934C17.6291 25.3612 18.2652 25.6238 18.9283 25.6238C19.5914 25.6238 20.2274 25.3612 20.6974 24.8934L21.8959 23.6966L22.3912 24.1927C22.4492 24.2507 22.5182 24.2968 22.594 24.3282C22.6699 24.3597 22.7512 24.3758 22.8334 24.3758C22.9155 24.3758 22.9968 24.3597 23.0727 24.3282C23.1485 24.2968 23.2175 24.2507 23.2755 24.1927C23.3336 24.1346 23.3797 24.0657 23.4111 23.9898C23.4425 23.9139 23.4587 23.8326 23.4587 23.7505C23.4587 23.6684 23.4425 23.587 23.4111 23.5112C23.3797 23.4353 23.3336 23.3664 23.2755 23.3083L17.024 17.0583Z" fill="white"/>
</svg>
