<svg width="380" height="380" viewBox="0 0 380 380" fill="none" xmlns="http://www.w3.org/2000/svg">
<path d="M265.609 2.06285C270.808 4.14658 273.324 10.0308 271.241 15.2294L222.138 137.728C217.168 150.127 229.662 162.323 241.925 157.077L363.255 105.181C368.391 102.984 374.348 105.372 376.545 110.508L376.546 110.509C378.747 115.63 376.36 121.587 371.224 123.784L249.893 175.68C237.615 180.92 237.819 198.385 250.203 203.349L373.161 252.637L373.162 252.634C378.047 254.872 380.355 260.559 378.333 265.602C376.25 270.8 370.352 273.312 365.168 271.234L242.674 222.133C230.289 217.169 218.094 229.664 223.338 241.927L275.231 363.26L275.231 363.26C277.364 368.221 275.19 373.967 270.382 376.319L269.909 376.535C264.757 378.727 258.815 376.343 256.619 371.208L204.727 249.876C199.482 237.612 182.017 237.817 177.053 250.201L127.95 372.7C125.872 377.884 119.982 380.414 114.784 378.331C109.586 376.247 107.075 370.349 109.153 365.165L158.256 242.667C163.221 230.281 150.725 218.085 138.462 223.331L17.1324 275.227C11.9805 277.419 6.03814 275.037 3.84166 269.901C1.64501 264.765 4.0272 258.822 9.16324 256.625L130.494 204.729C142.773 199.489 142.568 182.023 130.184 177.059L7.69116 127.958C2.49283 125.874 -0.0241023 119.99 2.05971 114.791C4.14352 109.593 10.0424 107.082 15.2263 109.16L137.719 158.261C150.104 163.225 162.299 150.729 157.055 138.466L105.162 17.1343C102.966 11.9981 105.348 6.0554 110.484 3.85838C115.62 1.66145 121.577 4.04945 123.774 9.18578L175.666 130.517C180.911 142.782 198.376 142.577 203.34 130.193L252.444 7.69465C254.527 2.49614 260.411 -0.0207755 265.609 2.06285Z" stroke="#FFB445"/>
</svg>
