<svg width="41" height="40" viewBox="0 0 41 40" fill="none" xmlns="http://www.w3.org/2000/svg">
<rect x="0.666504" y="0.000488281" width="40" height="40" rx="8" fill="#FF5500"/>
<path d="M17.5415 18.6966L21.2915 22.4466V27.188C21.2915 27.2709 21.2586 27.3504 21.2 27.409C21.1414 27.4676 21.0619 27.5005 20.979 27.5005H14.4165C14.085 27.5005 13.767 27.3688 13.5326 27.1344C13.2982 26.9 13.1665 26.582 13.1665 26.2505V13.7505C13.1665 13.419 13.2982 13.101 13.5326 12.8666C13.767 12.6322 14.085 12.5005 14.4165 12.5005H15.979C16.0619 12.5005 16.1414 12.5334 16.2 12.592C16.2586 12.6506 16.2915 12.7301 16.2915 12.813V21.9833C15.8745 22.1307 15.523 22.4208 15.2992 22.8024C15.0754 23.1839 14.9937 23.6322 15.0685 24.0681C15.1433 24.5041 15.3698 24.8995 15.708 25.1846C16.0461 25.4697 16.4742 25.6261 16.9165 25.6261C17.3588 25.6261 17.7869 25.4697 18.125 25.1846C18.4632 24.8995 18.6897 24.5041 18.7645 24.0681C18.8393 23.6322 18.7576 23.1839 18.5338 22.8024C18.31 22.4208 17.9585 22.1307 17.5415 21.9833V18.6966ZM16.9165 24.3755C17.0401 24.3755 17.161 24.3388 17.2637 24.2702C17.3665 24.2015 17.4466 24.1039 17.4939 23.9897C17.5412 23.8755 17.5536 23.7498 17.5295 23.6286C17.5054 23.5073 17.4459 23.396 17.3584 23.3085C17.271 23.2211 17.1597 23.1616 17.0384 23.1375C16.9172 23.1134 16.7915 23.1258 16.6773 23.1731C16.5631 23.2204 16.4655 23.3005 16.3968 23.4033C16.3282 23.506 16.2915 23.6269 16.2915 23.7505C16.2915 23.9162 16.3574 24.0752 16.4746 24.1924C16.5918 24.3096 16.7507 24.3755 16.9165 24.3755ZM25.0415 18.1255C25.0415 18.0019 25.0048 17.881 24.9362 17.7783C24.8675 17.6755 24.7699 17.5954 24.6557 17.5481C24.5415 17.5008 24.4158 17.4884 24.2946 17.5125C24.1733 17.5366 24.062 17.5961 23.9746 17.6835C23.8872 17.771 23.8276 17.8823 23.8035 18.0036C23.7794 18.1248 23.7918 18.2505 23.8391 18.3647C23.8864 18.4789 23.9665 18.5765 24.0693 18.6452C24.1721 18.7138 24.2929 18.7505 24.4165 18.7505C24.5823 18.7505 24.7412 18.6846 24.8584 18.5674C24.9757 18.4502 25.0415 18.2912 25.0415 18.1255ZM26.9165 12.5005H22.854C22.7711 12.5005 22.6916 12.5334 22.633 12.592C22.5744 12.6506 22.5415 12.7301 22.5415 12.813V15.3669L23.6087 16.4341C24.0078 16.2434 24.4615 16.2 24.8895 16.3115C25.3176 16.4229 25.6924 16.6822 25.9478 17.0433C26.2032 17.4045 26.3227 17.8443 26.2852 18.285C26.2477 18.7257 26.0555 19.139 25.7428 19.4518C25.43 19.7645 25.0167 19.9567 24.576 19.9942C24.1353 20.0317 23.6955 19.9122 23.3343 19.6568C22.9732 19.4014 22.714 19.0266 22.6025 18.5985C22.491 18.1705 22.5344 17.7168 22.7251 17.3177L21.4751 16.0677C21.4169 16.0097 21.3708 15.9407 21.3393 15.8649C21.3078 15.789 21.2915 15.7076 21.2915 15.6255V12.813C21.2915 12.7301 21.2586 12.6506 21.2 12.592C21.1414 12.5334 21.0619 12.5005 20.979 12.5005H17.854C17.7711 12.5005 17.6916 12.5334 17.633 12.592C17.5744 12.6506 17.5415 12.7301 17.5415 12.813V16.9294L22.3587 21.7458C22.4167 21.8039 22.4627 21.8728 22.4941 21.9487C22.5255 22.0246 22.5416 22.1059 22.5415 22.188V27.188C22.5415 27.2709 22.5744 27.3504 22.633 27.409C22.6916 27.4676 22.7711 27.5005 22.854 27.5005H26.9165C27.248 27.5005 27.566 27.3688 27.8004 27.1344C28.0348 26.9 28.1665 26.582 28.1665 26.2505V13.7505C28.1665 13.419 28.0348 13.101 27.8004 12.8666C27.566 12.6322 27.248 12.5005 26.9165 12.5005Z" fill="white"/>
</svg>
