<svg width="40" height="40" viewBox="0 0 40 40" fill="none" xmlns="http://www.w3.org/2000/svg">
<rect y="0.000488281" width="40" height="40" rx="8" fill="#FF5500"/>
<g clip-path="url(#clip0_15067_323)">
<path d="M29.8171 20.4426L27.3171 22.9426C27.259 23.0007 27.1901 23.0468 27.1142 23.0783C27.0383 23.1097 26.957 23.1259 26.8749 23.1259C26.7927 23.1259 26.7114 23.1097 26.6355 23.0783C26.5597 23.0468 26.4907 23.0007 26.4327 22.9426L25.1827 21.6926C25.0654 21.5754 24.9995 21.4163 24.9995 21.2504C24.9995 21.0846 25.0654 20.9255 25.1827 20.8083C25.3 20.691 25.459 20.6251 25.6249 20.6251C25.7907 20.6251 25.9498 20.691 26.0671 20.8083L26.8749 21.6168L28.9327 19.5583C29.05 19.441 29.209 19.3751 29.3749 19.3751C29.5407 19.3751 29.6998 19.441 29.8171 19.5583C29.9343 19.6755 30.0002 19.8346 30.0002 20.0004C30.0002 20.1663 29.9343 20.3254 29.8171 20.4426ZM21.2499 22.3192C22.2296 21.709 22.984 20.7962 23.3988 19.7191C23.8137 18.642 23.8664 17.459 23.549 16.3492C23.2317 15.2395 22.5615 14.2632 21.64 13.5682C20.7184 12.8732 19.5955 12.4973 18.4413 12.4973C17.287 12.4973 16.1642 12.8732 15.2426 13.5682C14.321 14.2632 13.6508 15.2395 13.3335 16.3492C13.0162 17.459 13.0689 18.642 13.4837 19.7191C13.8986 20.7962 14.6529 21.709 15.6327 22.3192C14.0194 22.8473 12.5678 23.834 11.4006 25.2231C11.3242 25.3139 11.2753 25.4246 11.2595 25.5423C11.2437 25.6599 11.2617 25.7796 11.3114 25.8874C11.3612 25.9952 11.4406 26.0865 11.5404 26.1508C11.6401 26.2151 11.7562 26.2497 11.8749 26.2504H24.9999C25.119 26.2506 25.2356 26.2167 25.3361 26.1527C25.4365 26.0888 25.5167 25.9974 25.567 25.8895C25.6173 25.7816 25.6357 25.6615 25.6201 25.5434C25.6045 25.4254 25.5554 25.3142 25.4788 25.2231C24.3108 23.834 22.8592 22.8473 21.2499 22.3192Z" fill="white"/>
</g>
<defs>
<clipPath id="clip0_15067_323">
<rect width="20" height="20" fill="white" transform="translate(10 10.0005)"/>
</clipPath>
</defs>
</svg>
