<svg width="40" height="40" viewBox="0 0 40 40" fill="none" xmlns="http://www.w3.org/2000/svg">
<rect y="0.000488281" width="40" height="40" rx="8" fill="#FF5500"/>
<path d="M27.3334 16.4974C28.2006 18.3113 28.3653 20.3822 27.7955 22.3104C27.2257 24.2385 25.9619 25.8873 24.248 26.9384C22.5341 27.9896 20.4915 28.3686 18.5146 28.0024C16.5376 27.6361 14.7664 26.5505 13.5428 24.9551C12.3192 23.3598 11.7299 21.3677 11.8887 19.3634C12.0475 17.3591 12.943 15.4846 14.4026 14.1018C15.8621 12.719 17.7821 11.9258 19.7921 11.8754C21.802 11.8249 23.7594 12.5208 25.2865 13.8287L27.0576 12.0568C27.1749 11.9395 27.3339 11.8736 27.4998 11.8736C27.6656 11.8736 27.8247 11.9395 27.942 12.0568C28.0592 12.1741 28.1251 12.3331 28.1251 12.499C28.1251 12.6648 28.0592 12.8239 27.942 12.9412L23.0935 17.7904L20.1474 20.7365L18.2763 22.6076C18.7601 22.9275 19.3233 23.1066 19.903 23.1246C20.4827 23.1427 21.0559 22.9991 21.5587 22.7098C22.0614 22.4206 22.4737 21.9972 22.7494 21.487C23.0252 20.9768 23.1535 20.3999 23.1201 19.8209C23.1108 19.6551 23.1677 19.4924 23.2783 19.3686C23.3889 19.2448 23.5442 19.17 23.7099 19.1607C23.8757 19.1514 24.0384 19.2083 24.1622 19.3189C24.286 19.4295 24.3608 19.5848 24.3701 19.7506C24.4205 20.6356 24.2009 21.515 23.7403 22.2724C23.2798 23.0298 22.6 23.6294 21.7911 23.9919C20.9821 24.3544 20.0822 24.4625 19.2104 24.3021C18.3386 24.1417 17.5361 23.7202 16.9091 23.0935C16.1294 22.3109 15.6747 21.2623 15.6362 20.1582C15.5977 19.0542 15.9783 17.9764 16.7015 17.1413C17.4248 16.3063 18.4372 15.7758 19.5355 15.6564C20.6338 15.5369 21.7365 15.8374 22.6224 16.4974L24.3982 14.7185C23.0957 13.6371 21.4396 13.0751 19.7479 13.1403C18.0563 13.2055 16.4484 13.8935 15.233 15.072C14.0177 16.2505 13.2806 17.8365 13.1634 19.5254C13.0462 21.2142 13.557 22.8868 14.5979 24.222C15.6387 25.5571 17.1361 26.4606 18.8025 26.759C20.469 27.0573 22.1868 26.7295 23.6263 25.8384C25.0657 24.9474 26.1252 23.5559 26.6012 21.9313C27.0772 20.3067 26.9362 18.5635 26.2052 17.0365C26.1337 16.8869 26.1246 16.715 26.1799 16.5587C26.2351 16.4024 26.3502 16.2744 26.4998 16.2029C26.6494 16.1314 26.8212 16.1223 26.9776 16.1775C27.1339 16.2328 27.2619 16.3478 27.3334 16.4974Z" fill="white"/>
</svg>
